<?xml version="1.0" encoding="UTF-8" standalone="no"?>
<svg
   version="1.1"
   id="svg9"
   sodipodi:docname="nonce.svg"
   width="100"
   height="103.40945"
   inkscape:version="1.1.2 (b8e25be833, 2022-02-05)"
   xmlns:inkscape="http://www.inkscape.org/namespaces/inkscape"
   xmlns:sodipodi="http://sodipodi.sourceforge.net/DTD/sodipodi-0.dtd"
   xmlns="http://www.w3.org/2000/svg"
   xmlns:svg="http://www.w3.org/2000/svg">
  <sodipodi:namedview
     id="namedview11"
     pagecolor="#ffffff"
     bordercolor="#999999"
     borderopacity="1"
     inkscape:pageshadow="0"
     inkscape:pageopacity="0"
     inkscape:pagecheckerboard="0"
     showgrid="false"
     inkscape:zoom="2.1"
     inkscape:cx="57.857143"
     inkscape:cy="92.619048"
     inkscape:window-width="1920"
     inkscape:window-height="1052"
     inkscape:window-x="3840"
     inkscape:window-y="0"
     inkscape:window-maximized="1"
     inkscape:current-layer="svg9" />
  <defs
     id="SvgjsDefs1001" />
  <g
     id="SvgjsG1007"
     featurekey="symbolFeature-0"
     transform="matrix(1.5215142,0,0,1.5215142,-26.075711,-24.371615)"
     fill="currentColor"
     inkscape:export-filename="/home/tawrik/Documents/nonce academy/svgs_collection/nonce.svg"
     inkscape:export-xdpi="300"
     inkscape:export-ydpi="300">
    <path
       d="m 63.644,82.336 16.013,-9.245 c 1.827,-1.054 3.205,-3.44 3.205,-5.551 V 49.089 c 0,-1.294 -0.536,-2.345 -1.471,-2.885 -0.935,-0.54 -2.113,-0.479 -3.233,0.167 L 73.597,49 v -6.868 c 0,-2.11 -1.378,-4.496 -3.205,-5.551 L 65.403,33.7 69.174,31.525 c 3.206,-1.849 3.206,-1.849 3.206,-2.734 0,-0.885 0,-0.886 -3.205,-2.736 L 53.161,16.81 c -1.827,-1.056 -4.582,-1.056 -6.409,0 l -16.014,9.245 c -3.205,1.851 -3.205,1.851 -3.205,2.731 0,0.88 0,0.88 3.203,2.731 l 3.774,2.183 -4.989,2.881 c -1.827,1.055 -3.205,3.44 -3.205,5.551 v 6.786 l -4.473,-2.585 c -1.12,-0.647 -2.299,-0.709 -3.233,-0.17 -0.936,0.54 -1.472,1.591 -1.472,2.885 v 18.46 c 0,2.11 1.378,4.497 3.205,5.551 l 15.979,9.226 c 1.12,0.646 2.3,0.708 3.234,0.168 0.936,-0.539 1.472,-1.591 1.473,-2.884 l 0.004,-5.346 5.719,3.302 c 1.827,1.055 4.582,1.055 6.409,0 l 5.749,-3.319 -0.004,5.69 c 0,0.013 0,0.025 0,0.038 0,3.327 0.002,3.33 0.714,3.779 l 0.102,0.059 c 0.748,0.395 0.748,0.395 3.922,-1.436 z M 32.238,28.92 c -0.078,-0.045 -0.155,-0.089 -0.231,-0.134 0.076,-0.044 0.153,-0.088 0.231,-0.134 l 16.014,-9.245 c 0.893,-0.516 2.517,-0.516 3.409,0 l 16.014,9.245 c 0.08,0.047 0.159,0.093 0.237,0.138 -0.078,0.045 -0.157,0.091 -0.237,0.137 l -5.273,3.041 -9.24,-5.336 c -1.827,-1.055 -4.582,-1.055 -6.409,0 l -9.241,5.336 z m -1.217,10.259 6.487,-3.746 9.225,5.333 c 1.827,1.056 4.582,1.057 6.409,0.003 l 9.258,-5.338 6.491,3.748 c 0.072,0.042 0.144,0.099 0.215,0.151 L 49.939,50.38 30.814,39.326 c 0.069,-0.051 0.137,-0.107 0.207,-0.147 z m 7.008,40.388 c 0,0.087 -0.007,0.157 -0.016,0.213 -0.052,-0.02 -0.116,-0.05 -0.191,-0.093 L 21.843,70.461 C 20.95,69.945 20.138,68.538 20.138,67.508 v -18.46 c 0,-0.085 0.006,-0.155 0.015,-0.21 0.052,0.021 0.115,0.05 0.188,0.093 l 5.975,3.454 v 9.642 c 0,2.11 1.378,4.497 3.205,5.551 l 8.513,4.915 z m 10.223,-4.639 -7.217,-4.167 0.007,-9.63 c 0,-2.109 -1.376,-4.495 -3.201,-5.551 l -8.524,-4.928 v -8.52 c 0,-0.063 0.012,-0.131 0.018,-0.196 L 48.439,52.978 48.424,75.006 C 48.367,74.98 48.305,74.958 48.252,74.928 Z m 3.41,0 c -0.073,0.042 -0.157,0.075 -0.238,0.11 L 51.438,52.98 70.58,41.943 c 0.006,0.062 0.018,0.128 0.018,0.188 v 8.598 l -8.471,4.884 c -1.827,1.054 -3.206,3.439 -3.208,5.549 l -0.006,9.578 z m 10.249,-2.454 8.479,-4.896 c 1.828,-1.054 3.206,-3.44 3.206,-5.551 v -9.562 l 6.059,-3.494 c 0.075,-0.043 0.139,-0.073 0.191,-0.093 0.009,0.055 0.015,0.125 0.015,0.212 v 18.45 c 0,1.03 -0.812,2.438 -1.705,2.953 l -16.013,9.245 c -0.08,0.046 -0.159,0.092 -0.237,0.137 z"
       id="path3" />
  </g>
  <g
     id="SvgjsG1008"
     featurekey="nameFeature-0"
     transform="matrix(1.0615712,0,0,1.0615712,117.87686,25.932058)"
     fill="currentColor" />
</svg>
