<svg width="104" height="108" viewBox="0 0 104 108" fill="none" xmlns="http://www.w3.org/2000/svg">
<g filter="url(#filter0_d_842_1340)">
<path d="M72.7595 100.904L97.1235 86.8374C99.9034 85.2337 102 81.6034 102 78.3915V50.318C102 48.3492 101.184 46.75 99.7618 45.9284C98.3392 45.1068 96.5469 45.1996 94.8428 46.1825L87.9032 50.1826V39.7328C87.9032 36.5224 85.8065 32.8921 83.0267 31.2869L75.4359 26.9034L81.1735 23.5941C86.0515 20.7808 86.0515 20.7808 86.0515 19.4343C86.0515 18.0878 86.0515 18.0862 81.175 15.2714L56.8095 1.20504C54.0297 -0.40168 49.8379 -0.40168 47.0581 1.20504L22.6926 15.2714C17.8161 18.0878 17.8161 18.0878 17.8161 19.4267C17.8161 20.7656 17.8161 20.7656 22.6895 23.5819L28.4317 26.9034L20.8409 31.2869C18.0611 32.8921 15.9645 36.5209 15.9645 39.7328V50.0578L9.15872 46.1247C7.45463 45.1403 5.66076 45.0459 4.23967 45.866C2.81553 46.6877 2 48.2868 2 50.2556V78.3428C2 81.5532 4.09665 85.185 6.87645 86.7887L31.1887 100.826C32.8928 101.809 34.6882 101.903 36.1093 101.082C37.5334 100.262 38.349 98.6611 38.3505 96.6937L38.3566 88.5597L47.0581 93.5838C49.8379 95.189 54.0297 95.189 56.8095 93.5838L65.5567 88.5339L65.5506 97.1913C65.5506 97.2111 65.5506 97.2293 65.5506 97.2491C65.5506 102.311 65.5536 102.316 66.637 102.999L66.7922 103.089C67.9303 103.69 67.9303 103.69 72.7595 100.904ZM24.9749 19.6306C24.8562 19.5621 24.739 19.4952 24.6234 19.4267C24.739 19.3597 24.8562 19.2928 24.9749 19.2228L49.3404 5.15641C50.6991 4.37131 53.17 4.37131 54.5272 5.15641L78.8928 19.2228C79.0145 19.2943 79.1347 19.3643 79.2534 19.4328C79.1347 19.5012 79.0145 19.5712 78.8928 19.6412L70.8698 24.2682L56.811 16.1494C54.0312 14.5442 49.8394 14.5442 47.0596 16.1494L32.9993 24.2682L24.9749 19.6306ZM23.1232 35.2398L32.9932 29.5402L47.0292 37.6544C49.809 39.2612 54.0008 39.2627 56.7806 37.659L70.8668 29.5372L80.7429 35.2398C80.8525 35.3037 80.962 35.3904 81.0701 35.4695L51.9072 52.2823L22.8082 35.4635C22.9132 35.3859 23.0167 35.3007 23.1232 35.2398ZM33.786 96.6907C33.786 96.8231 33.7753 96.9296 33.7616 97.0148C33.6825 96.9844 33.5851 96.9387 33.471 96.8733L9.15872 82.8358C7.80001 82.0507 6.56454 79.9099 6.56454 78.3428V50.2556C6.56454 50.1263 6.57367 50.0198 6.58736 49.9361C6.66648 49.9681 6.76234 50.0122 6.87341 50.0776L15.9645 55.3329V70.0033C15.9645 73.2137 18.0611 76.8456 20.8409 78.4493L33.7936 85.9275L33.786 96.6907ZM49.3404 89.6324L38.3596 83.2923L38.3703 68.6401C38.3703 65.4312 36.2767 61.8009 33.4999 60.1941L20.5305 52.6961V39.7328C20.5305 39.637 20.5488 39.5335 20.5579 39.4346L49.6249 56.2352L49.6021 89.7511C49.5154 89.7115 49.421 89.6781 49.3404 89.6324ZM54.5288 89.6324C54.4177 89.6963 54.2899 89.7465 54.1666 89.7998L54.1879 56.2382L83.3128 39.4453C83.3219 39.5396 83.3401 39.64 83.3401 39.7313V52.8133L70.4514 60.2444C67.6716 61.848 65.5734 65.4768 65.5704 68.6872L65.5613 83.2603L54.5288 89.6324ZM70.1227 85.8986L83.0237 78.4493C85.805 76.8456 87.9016 73.2153 87.9016 70.0033V55.4546L97.1205 50.1385C97.2346 50.073 97.332 50.0274 97.4111 49.997C97.4248 50.0806 97.4339 50.1871 97.4339 50.3195V78.3915C97.4339 79.9586 96.1985 82.1009 94.8398 82.8845L70.4757 96.9509C70.354 97.0209 70.2338 97.0909 70.1151 97.1593L70.1227 85.8986Z" fill="#DA0037"/>
</g>
<defs>
<filter id="filter0_d_842_1340" x="0" y="0" width="104" height="107.409" filterUnits="userSpaceOnUse" color-interpolation-filters="sRGB">
<feFlood flood-opacity="0" result="BackgroundImageFix"/>
<feColorMatrix in="SourceAlpha" type="matrix" values="0 0 0 0 0 0 0 0 0 0 0 0 0 0 0 0 0 0 127 0" result="hardAlpha"/>
<feOffset dy="2"/>
<feGaussianBlur stdDeviation="1"/>
<feComposite in2="hardAlpha" operator="out"/>
<feColorMatrix type="matrix" values="0 0 0 0 1 0 0 0 0 0.395833 0 0 0 0 0.548261 0 0 0 0.2 0"/>
<feBlend mode="normal" in2="BackgroundImageFix" result="effect1_dropShadow_842_1340"/>
<feBlend mode="normal" in="SourceGraphic" in2="effect1_dropShadow_842_1340" result="shape"/>
</filter>
</defs>
</svg>
