<svg width="108" height="112" viewBox="0 0 108 112" fill="none" xmlns="http://www.w3.org/2000/svg">
<g filter="url(#filter0_d_842_1340)">
<path d="M74.7595 102.904L99.1235 88.8374C101.903 87.2337 104 83.6034 104 80.3915V52.318C104 50.3492 103.184 48.75 101.762 47.9284C100.339 47.1068 98.5469 47.1996 96.8428 48.1825L89.9032 52.1826V41.7328C89.9032 38.5224 87.8065 34.8921 85.0267 33.2869L77.4359 28.9034L83.1735 25.5941C88.0515 22.7808 88.0515 22.7808 88.0515 21.4343C88.0515 20.0878 88.0515 20.0862 83.175 17.2714L58.8095 3.20504C56.0297 1.59832 51.8379 1.59832 49.0581 3.20504L24.6926 17.2714C19.8161 20.0878 19.8161 20.0878 19.8161 21.4267C19.8161 22.7656 19.8161 22.7656 24.6895 25.5819L30.4317 28.9034L22.8409 33.2869C20.0611 34.8921 17.9645 38.5209 17.9645 41.7328V52.0578L11.1587 48.1247C9.45463 47.1403 7.66076 47.0459 6.23967 47.866C4.81553 48.6877 4 50.2868 4 52.2556V80.3428C4 83.5532 6.09665 87.185 8.87645 88.7887L33.1887 102.826C34.8928 103.809 36.6882 103.903 38.1093 103.082C39.5334 102.262 40.349 100.661 40.3505 98.6938L40.3566 90.5597L49.0581 95.5838C51.8379 97.189 56.0297 97.189 58.8095 95.5838L67.5567 90.5339L67.5506 99.1913C67.5506 99.2111 67.5506 99.2293 67.5506 99.2491C67.5506 104.311 67.5536 104.316 68.637 104.999L68.7922 105.089C69.9303 105.69 69.9303 105.69 74.7595 102.904V102.904ZM26.9749 21.6306C26.8562 21.5621 26.739 21.4952 26.6234 21.4267C26.739 21.3597 26.8562 21.2928 26.9749 21.2228L51.3404 7.15641C52.6991 6.37131 55.17 6.37131 56.5272 7.15641L80.8928 21.2228C81.0145 21.2943 81.1347 21.3643 81.2534 21.4328C81.1347 21.5012 81.0145 21.5712 80.8928 21.6412L72.8698 26.2682L58.811 18.1494C56.0312 16.5442 51.8394 16.5442 49.0596 18.1494L34.9993 26.2682L26.9749 21.6306ZM25.1232 37.2398L34.9932 31.5402L49.0292 39.6544C51.809 41.2612 56.0008 41.2627 58.7806 39.659L72.8668 31.5372L82.7429 37.2398C82.8525 37.3037 82.962 37.3904 83.0701 37.4695L53.9072 54.2823L24.8082 37.4635C24.9132 37.3859 25.0167 37.3007 25.1232 37.2398ZM35.786 98.6907C35.786 98.8231 35.7753 98.9296 35.7616 99.0148C35.6825 98.9844 35.5851 98.9387 35.471 98.8733L11.1587 84.8358C9.80001 84.0507 8.56454 81.9099 8.56454 80.3428V52.2556C8.56454 52.1263 8.57367 52.0198 8.58736 51.9361C8.66648 51.9681 8.76234 52.0122 8.87341 52.0776L17.9645 57.3329V72.0033C17.9645 75.2137 20.0611 78.8456 22.8409 80.4493L35.7936 87.9275L35.786 98.6907ZM51.3404 91.6324L40.3596 85.2923L40.3703 70.6401C40.3703 67.4312 38.2767 63.8009 35.4999 62.1942L22.5305 54.6961V41.7328C22.5305 41.637 22.5488 41.5335 22.5579 41.4346L51.6249 58.2352L51.6021 91.7511C51.5154 91.7115 51.421 91.6781 51.3404 91.6324V91.6324ZM56.5288 91.6324C56.4177 91.6963 56.2899 91.7465 56.1666 91.7998L56.1879 58.2382L85.3128 41.4453C85.3219 41.5396 85.3401 41.64 85.3401 41.7313V54.8133L72.4514 62.2444C69.6716 63.848 67.5734 67.4768 67.5704 70.6872L67.5613 85.2603L56.5288 91.6324ZM72.1228 87.8986L85.0237 80.4493C87.805 78.8456 89.9016 75.2153 89.9016 72.0033V57.4546L99.1205 52.1385C99.2346 52.073 99.332 52.0274 99.4111 51.997C99.4248 52.0806 99.4339 52.1871 99.4339 52.3195V80.3915C99.4339 81.9586 98.1985 84.1009 96.8397 84.8845L72.4757 98.9509C72.354 99.0209 72.2338 99.0909 72.1151 99.1593L72.1228 87.8986Z" fill="#444444"/>
</g>
<defs>
<filter id="filter0_d_842_1340" x="0" y="0" width="108" height="111.409" filterUnits="userSpaceOnUse" color-interpolation-filters="sRGB">
<feFlood flood-opacity="0" result="BackgroundImageFix"/>
<feColorMatrix in="SourceAlpha" type="matrix" values="0 0 0 0 0 0 0 0 0 0 0 0 0 0 0 0 0 0 127 0" result="hardAlpha"/>
<feOffset dy="2"/>
<feGaussianBlur stdDeviation="2"/>
<feComposite in2="hardAlpha" operator="out"/>
<feColorMatrix type="matrix" values="0 0 0 0 0.5 0 0 0 0 0.5 0 0 0 0 0.5 0 0 0 0.2 0"/>
<feBlend mode="normal" in2="BackgroundImageFix" result="effect1_dropShadow_842_1340"/>
<feBlend mode="normal" in="SourceGraphic" in2="effect1_dropShadow_842_1340" result="shape"/>
</filter>
</defs>
</svg>
